HIERARCHY
ROOT Hips
{
	OFFSET 48.045300 -20.788813 85.557701
	CHANNELS 6 Xposition Yposition Zposition Xrotation Yrotation Zrotation
	JOINT spine
	{
		OFFSET 0.000000 -0.367607 6.392601
		CHANNELS 3 Xrotation Yrotation Zrotation
		JOINT spine1
		{
			OFFSET 0.000000 -0.000002 9.176109
			CHANNELS 3 Xrotation Yrotation Zrotation
			JOINT spine2
			{
				OFFSET 0.000000 0.000000 8.792381
				CHANNELS 3 Xrotation Yrotation Zrotation
				JOINT Neck
				{
					OFFSET 0.000000 -1.076244 22.573700
					CHANNELS 3 Xrotation Yrotation Zrotation
					JOINT Head
					{
						OFFSET 0.000000 -0.000002 6.820114
						CHANNELS 3 Xrotation Yrotation Zrotation
						End Site
						{
							OFFSET 0.000000 5.444267 16.508499
						}
					}
				}
				JOINT RightShoulder
				{
					OFFSET -3.702209 0.515507 9.495087
					CHANNELS 3 Xrotation Yrotation Zrotation
					JOINT RightArm
					{
						OFFSET 0.000000 -0.000002 12.453705
						CHANNELS 3 Xrotation Yrotation Zrotation
						JOINT RightArmRoll
						{
							OFFSET 0.000000 -0.000002 6.286850
							CHANNELS 3 Xrotation Yrotation Zrotation
							JOINT RightForeArm
							{
								OFFSET 0.000000 -0.000002 18.311401
								CHANNELS 3 Xrotation Yrotation Zrotation
								JOINT RightForeArmRoll
								{
									OFFSET 0.000000 -0.000002 7.054825
									CHANNELS 3 Xrotation Yrotation Zrotation
									JOINT RightHand
									{
										OFFSET 0.000000 -0.000002 14.157501
										CHANNELS 3 Xrotation Yrotation Zrotation
										End Site
										{
											OFFSET 0.000000 0.000000 0.100006
										}
									}
								}
							}
						}
					}
				}
				JOINT LeftShoulder
				{
					OFFSET 3.702209 0.515507 9.495087
					CHANNELS 3 Xrotation Yrotation Zrotation
					JOINT LeftArm
					{
						OFFSET 0.000000 -0.000002 12.453705
						CHANNELS 3 Xrotation Yrotation Zrotation
						JOINT LeftArmRoll
						{
							OFFSET 0.000000 -0.000002 6.286850
							CHANNELS 3 Xrotation Yrotation Zrotation
							JOINT LeftForeArm
							{
								OFFSET 0.000000 -0.000002 18.311401
								CHANNELS 3 Xrotation Yrotation Zrotation
								JOINT LeftForeArmRoll
								{
									OFFSET 0.000000 -0.000002 7.054825
									CHANNELS 3 Xrotation Yrotation Zrotation
									JOINT LeftHand
									{
										OFFSET 0.000000 -0.000002 14.157501
										CHANNELS 3 Xrotation Yrotation Zrotation
										End Site
										{
											OFFSET 0.000000 0.000000 0.100006
										}
									}
								}
							}
						}
					}
				}
			}
		}
	}
	JOINT RightUpLeg
	{
		OFFSET -5.666161 0.871611 -1.039032
		CHANNELS 3 Xrotation Yrotation Zrotation
		JOINT RightUpLegRoll
		{
			OFFSET 0.000000 -0.000004 16.600502
			CHANNELS 3 Xrotation Yrotation Zrotation
			JOINT RightLeg
			{
				OFFSET 0.000000 0.000004 -20.557198
				CHANNELS 3 Xrotation Yrotation Zrotation
				JOINT RightLegRoll
				{
					OFFSET 0.000000 -0.000004 20.624397
					CHANNELS 3 Xrotation Yrotation Zrotation
					JOINT RightFoot
					{
						OFFSET 0.000000 -0.000002 17.166397
						CHANNELS 3 Xrotation Yrotation Zrotation
						JOINT RightToeBase
						{
							OFFSET 0.000000 -0.000002 14.350204
							CHANNELS 3 Xrotation Yrotation Zrotation
							End Site
							{
								OFFSET 0.006081 0.801058 6.949707
							}
						}
					}
				}
			}
		}
	}
	JOINT LeftUpLeg
	{
		OFFSET 5.666161 0.871611 -1.039032
		CHANNELS 3 Xrotation Yrotation Zrotation
		JOINT LeftUpLegRoll
		{
			OFFSET 0.000000 -0.000004 16.600601
			CHANNELS 3 Xrotation Yrotation Zrotation
			JOINT LeftLeg
			{
				OFFSET 0.000000 -0.000002 20.557098
				CHANNELS 3 Xrotation Yrotation Zrotation
				JOINT LeftLegRoll
				{
					OFFSET 0.000000 -0.000004 20.815102
					CHANNELS 3 Xrotation Yrotation Zrotation
					JOINT LeftFoot
					{
						OFFSET 0.000000 -0.000004 16.975693
						CHANNELS 3 Xrotation Yrotation Zrotation
						JOINT LeftToeBase
						{
							OFFSET 0.000000 -0.000002 14.350204
							CHANNELS 3 Xrotation Yrotation Zrotation
							End Site
							{
								OFFSET -0.027260 0.801062 6.949707
							}
						}
					}
				}
			}
		}
	}
}
MOTION
Frames: 9
Frame Time: 0.041667
53.560005 -14.759416 85.660400 -2.113309 0.464170 -2.689422 -1.309994 0.412275 -0.262416 1.384765 0.829662 -0.530286 3.029874 0.823249 -0.540184 9.824861 -5.489522 0.016248 6.041174 3.764588 0.177188 -2.132931 -66.206834 -3.276475 -50.056704 -115.489906 -49.599027 -0.000002 0.000016 -0.000003 10.293296 -17.141429 1.469591 0.000003 -0.000001 -3.010580 -5.000160 -7.998944 0.000170 -1.090711 56.330312 0.960641 -38.603454 117.096804 39.878128 -0.000001 -0.000022 0.000004 10.831469 13.024125 -0.698651 0.000004 -0.000001 3.003720 -5.000171 7.998716 -0.000159 0.087666 -175.380010 1.098631 -179.999991 0.000005 -1.079998 173.988687 -3.379359 -0.595644 0.000003 -0.000003 0.057033 68.313851 6.871706 2.204427 25.456953 -7.355595 0.000001 1.176419 176.123818 1.105783 -0.000005 -0.000004 -1.105831 -7.359477 0.856757 0.537797 0.000000 0.000002 -0.151316 70.764530 -6.848494 -2.117663 25.503913 7.343867 -0.070004 
53.571003 -14.761615 85.658493 -2.105157 0.459311 -2.690826 -1.310409 0.412539 -0.262328 1.383936 0.830775 -0.529318 3.029044 0.824373 -0.539229 9.830787 -5.495271 0.015080 6.025864 3.772550 0.175803 -2.129838 -66.198685 -3.272132 -50.034288 -115.493390 -49.634025 -0.000005 0.000017 -0.000003 10.371455 -17.160399 1.485574 0.000002 -0.000001 -3.010580 -5.000165 -7.998944 0.000170 -1.070069 56.318482 0.934545 -38.572571 117.102104 39.882639 -0.000002 -0.000021 0.000003 10.897420 13.040038 -0.707021 0.000003 -0.000001 3.003720 -5.000172 7.998717 -0.000158 0.076153 -175.370995 1.104865 -179.999991 0.000005 -1.079998 173.986256 -3.386299 -0.595523 0.000003 -0.000003 0.057032 68.312472 6.871712 2.204415 25.456953 -7.355596 -0.000000 1.165014 176.131809 1.113596 -0.000005 -0.000004 -1.105830 -7.364511 0.853925 0.537928 0.000001 0.000003 -0.151253 70.767180 -6.848182 -2.118047 25.504416 7.343873 -0.070785 
53.569305 -14.767015 85.658592 -2.097155 0.454251 -2.692246 -1.310861 0.412797 -0.262230 1.383026 0.831931 -0.528298 3.028134 0.825542 -0.538225 9.837118 -5.501384 0.013893 6.010303 3.781182 0.174346 -2.127176 -66.190318 -3.268268 -50.009815 -115.497310 -49.667329 0.000001 0.000019 -0.000003 10.450294 -17.179690 1.501799 0.000000 -0.000001 -3.010580 -5.000160 -7.998945 0.000170 -1.048299 56.306874 0.907144 -38.541166 117.107241 39.886123 -0.000001 -0.000021 0.000004 10.963062 13.055842 -0.715382 0.000004 -0.000001 3.003721 -5.000169 7.998715 -0.000162 0.064831 -175.362006 1.111452 -179.999991 0.000005 -1.079998 173.983879 -3.392262 -0.595294 0.000003 -0.000003 0.057032 68.311229 6.871722 2.204394 25.456953 -7.355594 -0.000000 1.154179 176.139773 1.121557 -0.000005 -0.000004 -1.105830 -7.368706 0.851085 0.538040 0.000001 0.000002 -0.151159 70.769530 -6.847868 -2.118448 25.505024 7.343874 -0.071650 
53.561203 -14.763616 85.661591 -2.089252 0.449050 -2.693658 -1.311344 0.413052 -0.262124 1.382056 0.833119 -0.527243 3.027175 0.826742 -0.537185 9.843756 -5.507768 0.012700 5.994560 3.790282 0.172840 -2.124815 -66.181835 -3.264730 -49.985018 -115.501094 -49.700677 -0.000001 0.000017 -0.000003 10.529666 -17.199111 1.518202 0.000002 -0.000001 -3.010580 -5.000162 -7.998943 0.000170 -1.025746 56.295563 0.878840 -38.510635 117.111475 39.890279 0.000000 -0.000022 0.000004 11.028611 13.071529 -0.723781 0.000001 -0.000000 3.003720 -5.000170 7.998716 -0.000159 0.053639 -175.352007 1.118286 -179.999991 0.000005 -1.079998 173.981570 -3.399204 -0.595166 0.000003 -0.000003 0.057032 68.309944 6.871700 2.204468 25.456953 -7.355595 -0.000000 1.143732 176.146767 1.129591 -0.000005 -0.000004 -1.105831 -7.372320 0.848236 0.538140 0.000001 0.000003 -0.151044 70.771456 -6.847582 -2.118782 25.505632 7.343872 -0.072565 
53.569702 -14.758611 85.658295 -2.081411 0.443769 -2.695082 -1.311843 0.413305 -0.262013 1.381066 0.834324 -0.526168 3.026177 0.827960 -0.536123 9.850566 -5.514297 0.011500 5.978719 3.799660 0.171307 -2.122638 -66.173366 -3.261403 -49.959941 -115.504728 -49.733968 -0.000002 0.000017 -0.000003 10.609224 -17.218683 1.534712 0.000003 -0.000001 -3.010579 -5.000163 -7.998945 0.000169 -1.002754 56.284345 0.850026 -38.479749 117.115614 39.893882 0.000001 -0.000023 0.000004 11.094058 13.087097 -0.732185 0.000004 -0.000001 3.003719 -5.000171 7.998715 -0.000160 0.042529 -175.342007 1.125253 -179.999991 0.000005 -1.079998 173.979275 -3.406144 -0.596034 0.000004 -0.000003 0.057032 68.308783 6.871684 2.204437 25.456952 -7.355595 -0.000000 1.133529 176.155756 1.137724 -0.000005 -0.000004 -1.105830 -7.375605 0.845386 0.538231 0.000001 0.000002 -0.150916 70.773259 -6.847262 -2.119215 25.506237 7.343873 -0.073509 
53.567406 -14.758712 85.655594 -2.073583 0.438467 -2.696505 -1.312342 0.413557 -0.261902 1.380056 0.835534 -0.525087 3.025177 0.829183 -0.535057 9.857408 -5.520866 0.010300 5.962864 3.809101 0.169773 -2.120497 -66.164787 -3.258109 -49.936616 -115.507788 -49.769208 -0.000001 0.000018 -0.000003 10.688899 -17.238204 1.551305 0.000005 -0.000001 -3.010580 -5.000162 -7.998945 0.000170 -0.979661 56.273129 0.821093 -38.449051 117.119808 39.897611 -0.000003 -0.000022 0.000003 11.159522 13.102738 -0.740641 0.000002 -0.000001 3.003720 -5.000172 7.998714 -0.000160 0.031436 -175.333005 1.132247 -179.999991 0.000005 -1.079998 173.977021 -3.413100 -0.595904 0.000003 -0.000003 0.057033 68.307643 6.871707 2.204313 25.456950 -7.355595 0.000000 1.123386 176.163734 1.145850 -0.000005 -0.000004 -1.105840 -7.378809 0.842533 0.538322 0.000000 0.000002 -0.150786 70.774967 -6.846975 -2.119562 25.506938 7.343874 -0.074481 
53.577003 -14.768815 85.655701 -2.065727 0.433205 -2.697925 -1.312831 0.413809 -0.261793 1.379077 0.836735 -0.524017 3.024188 0.830396 -0.534000 9.864169 -5.527365 0.009107 5.947040 3.818411 0.168259 -2.118278 -66.156318 -3.254730 -49.911522 -115.511435 -49.802423 -0.000001 0.000018 -0.000004 10.768490 -17.257687 1.567929 0.000003 -0.000002 -3.010580 -5.000162 -7.998945 0.000170 -0.956806 56.261812 0.792442 -38.416976 117.124740 39.899923 -0.000001 -0.000023 0.000004 11.224993 13.118357 -0.749135 0.000002 -0.000000 3.003722 -5.000171 7.998714 -0.000161 0.020306 -175.323006 1.139175 -179.999991 0.000005 -1.079998 173.974726 -3.419050 -0.595658 0.000004 -0.000003 0.057033 68.306379 6.871718 2.204295 25.456953 -7.355595 -0.000001 1.113123 176.171725 1.153942 -0.000005 -0.000004 -1.105840 -7.382174 0.839682 0.538416 0.000001 0.000002 -0.150661 70.776783 -6.846691 -2.119901 25.507546 7.343874 -0.075415 
53.567406 -14.763914 85.664200 -2.057797 0.428043 -2.699340 -1.313312 0.414064 -0.261688 1.378127 0.837913 -0.522971 3.023239 0.831588 -0.532970 9.870727 -5.533673 0.007921 5.931357 3.827391 0.166788 -2.115837 -66.147848 -3.251101 -49.886780 -115.515233 -49.835710 -0.000002 0.000017 -0.000003 10.847776 -17.276945 1.584513 0.000003 -0.000002 -3.010580 -5.000165 -7.998944 0.000170 -0.934535 56.250381 0.764465 -38.386476 117.129015 39.904205 -0.000001 -0.000022 0.000003 11.290681 13.134039 -0.757696 0.000002 -0.000001 3.003721 -5.000174 7.998715 -0.000161 0.009077 -175.313006 1.145911 -179.999991 0.000005 -1.079998 173.972377 -3.426004 -0.595535 0.000003 -0.000003 0.057033 68.305102 6.871698 2.204370 25.456955 -7.355595 -0.000001 1.102568 176.179703 1.161960 -0.000005 -0.000004 -1.105840 -7.385961 0.836837 0.538517 0.000001 0.000003 -0.150552 70.778914 -6.846372 -2.120216 25.508158 7.343872 -0.076320 
53.562904 -14.764816 85.660698 -2.049746 0.423041 -2.700739 -1.313752 0.414325 -0.261593 1.377238 0.839056 -0.521966 3.022360 0.832742 -0.531979 9.876938 -5.539679 0.006749 5.915859 3.835824 0.165382 -2.113056 -66.139584 -3.247104 -49.862181 -115.519099 -49.868734 -0.000000 0.000017 -0.000003 10.926548 -17.296095 1.601053 0.000001 -0.000001 -3.010580 -5.000165 -7.998942 0.000170 -0.913186 56.238640 0.737554 -38.355306 117.134261 39.908064 -0.000001 -0.000022 0.000003 11.356494 13.149887 -0.766312 0.000005 -0.000001 3.003720 -5.000168 7.998714 -0.000160 -0.002306 -175.304004 1.152371 -179.999991 0.000005 -1.079998 173.970000 -3.431953 -0.596306 0.000003 -0.000003 0.057033 68.303852 6.871707 2.204350 25.456950 -7.355595 -0.000001 1.091555 176.186697 1.169838 -0.000005 -0.000004 -1.105840 -7.390417 0.834000 0.538632 0.000000 0.000003 -0.150467 70.781257 -6.846090 -2.120624 25.508759 7.343874 -0.077164 
